<?xml version="1.0" encoding="UTF-8"?>
<svg version="1.1" xmlns="http://www.w3.org/2000/svg" width="1024" height="1024">
<path d="M0 0 C0.95998901 -0.00100708 1.91997803 -0.00201416 2.90905762 -0.00305176 C29.2572233 0.01548716 55.39218375 1.96541642 81.25 7.25 C82.22598145 7.44932129 83.20196289 7.64864258 84.20751953 7.85400391 C108.06450132 12.87266291 131.79667718 20.30987488 153.73046875 31.02099609 C156.48712747 32.36566858 159.25916034 33.6757388 162.03125 34.98828125 C181.99371759 44.57110276 200.24131694 56.14535359 217.56689453 69.91650391 C219.68947381 71.59818769 221.84537435 73.23467921 224 74.875 C234.55786704 83.13856132 244.47388861 92.08816667 254.25 101.25 C255.51677509 102.43505833 256.783707 103.61994905 258.05078125 104.8046875 C259.01226074 105.70380859 259.01226074 105.70380859 259.99316406 106.62109375 C262.51613483 108.97806292 265.04303292 111.33079447 267.57080078 113.68261719 C269.04152293 115.05540524 270.50388856 116.43713478 271.96484375 117.8203125 C281.31406994 126.51797187 293.23676273 137.10896599 306.5625 137.75 C309.96396872 137.61267362 310.99188058 137.43886787 313.8125 135.375 C317.97119023 129.22737096 317.18126602 120.31071125 315.86767578 113.17236328 C313.83367672 104.7986269 310.45517414 96.92416901 306.48608398 89.29663086 C304.54323303 85.453481 303.73255866 82.55162081 304.25 78.25 C306.25 76.25 306.25 76.25 309.5625 75.6875 C320.56683691 76.00646629 330.41463647 85.39720617 338.25 92.25 C338.90742187 92.78625 339.56484375 93.3225 340.2421875 93.875 C344.0519369 96.9905284 347.27498985 100.39373801 350.453125 104.1484375 C351.62046957 105.51372311 352.81742193 106.85442771 354.046875 108.1640625 C374.88614206 130.46724502 391.53085478 161.1594963 400.25 190.25 C400.5588916 191.21413818 400.5588916 191.21413818 400.87402344 192.19775391 C405.12729118 205.59252364 407.34904776 221.94029134 401.53125 235.17578125 C399.16716512 239.00300403 396.27979856 241.23510072 392.25 243.25 C384.52564644 244.24616399 378.37958728 242.28759213 372.15234375 237.70703125 C370.08770928 235.96860107 368.16218956 234.15435271 366.25 232.25 C365.6415625 231.66476562 365.033125 231.07953125 364.40625 230.4765625 C355.70444923 221.43126959 351.14063843 208.98503096 350.88671875 196.58203125 C351.3339112 193.71134422 352.26907488 192.34883733 354.25 190.25 C358.51805314 189.20901143 361.36146303 190.60207296 365.0625 192.625 C371.74124972 196.85857963 376.88479562 202.70219343 381.25 209.25 C380.6702415 200.36036966 376.41970585 192.57018648 370.25 186.25 C364.73239027 182.1117927 360.11614774 179.96259352 353.1875 179.875 C352.16527344 179.84664062 351.14304687 179.81828125 350.08984375 179.7890625 C346.55966695 180.36204856 345.45933978 181.50352715 343.25 184.25 C338.19419871 193.82941297 340.39536277 205.3606486 343.40625 215.25390625 C346.56197063 224.72106814 351.14200577 232.37624017 357.25 240.25 C357.87132812 241.10078125 358.49265625 241.9515625 359.1328125 242.828125 C367.50581745 252.40610114 379.89407843 258.32571713 392.25 260.25 C389.39133296 267.92704923 379.27540594 273.8659284 372.2109375 277.3828125 C354.89113338 285.25376755 331.53483035 290.74694277 312.9375 284.625 C308.18519949 282.48533863 304.15193629 279.68503793 300.25 276.25 C299.66734375 275.76015625 299.0846875 275.2703125 298.484375 274.765625 C283.27905076 260.93014979 277.62023387 239.54606752 274.5 220 C274.29769775 218.98305054 274.29769775 218.98305054 274.09130859 217.94555664 C273.70178607 215.04292731 273.85172971 212.86876595 275.44946289 210.38647461 C279.89904507 205.53992311 285.23495464 202.91532402 291.1875 200.3125 C292.06212891 199.91482422 292.93675781 199.51714844 293.83789062 199.10742188 C295.96934641 198.14069603 298.10612138 197.1887682 300.25 196.25 C296.90181977 185.23026119 289.68884925 175.68249605 283.25 166.25 C278.93719366 166.84132367 275.23455863 167.91527816 271.1875 169.5 C265.17625475 171.6939777 259.16132128 173.39229467 252.9375 174.875 C252.13368896 175.06868164 251.32987793 175.26236328 250.50170898 175.46191406 C242.14912386 177.3979383 233.69788279 178.80263762 225.25 180.25 C225.74948 182.24792002 226.24896061 184.24583989 226.7484436 186.24375916 C227.19626808 188.0350674 227.64408274 189.8263781 228.09188843 191.61769104 C229.34431619 196.62758982 230.59692604 201.63744296 231.84985352 206.6472168 C236.20114758 224.04694841 236.20114758 224.04694841 238.1171875 231.75390625 C245.04514238 259.6052148 252.0724076 287.43829255 259.42263794 315.18145752 C259.92608598 317.08191346 260.42681978 318.98308777 260.92749023 320.88427734 C261.22341064 321.9923877 261.51933105 323.10049805 261.82421875 324.2421875 C262.07776123 325.19464355 262.33130371 326.14709961 262.5925293 327.12841797 C263.05800827 329.21337773 263.05800827 329.21337773 264.25 330.25 C266.64305489 330.38589952 269.011087 330.46073531 271.40625 330.49609375 C272.92057655 330.5291307 274.43489935 330.56234011 275.94921875 330.59570312 C278.32238967 330.64237339 280.69555868 330.68657717 283.06884766 330.72680664 C298.16144037 330.99499806 312.92090737 332.17879404 327.6875 335.5 C329.14615479 335.82750244 329.14615479 335.82750244 330.63427734 336.16162109 C353.56116833 341.47152061 374.47604706 350.54107064 392.25 366.25 C392.98605469 366.89839844 393.72210937 367.54679687 394.48046875 368.21484375 C398.57518286 372.06509732 401.49701432 376.36567057 404.25 381.25 C400.02332943 379.93503582 396.02745578 378.31696565 391.9855957 376.53393555 C341.59224346 354.46176192 286.45120865 359.51311254 236.0390625 379.14160156 C211.81018938 388.77037292 188.77720514 401.19522077 166.25 414.25 C164.13816258 415.47029743 162.02617953 416.69034284 159.9140625 417.91015625 C158.83995117 418.53067871 157.76583984 419.15120117 156.65917969 419.79052734 C61.63606547 474.67675969 61.63606547 474.67675969 12.25 476.25 C11.13367188 476.28996094 10.01734375 476.32992188 8.8671875 476.37109375 C-23.13763582 476.94867549 -53.69460058 467.91549376 -82.41699219 454.34667969 C-84.60548312 453.31793322 -86.80356364 452.31474922 -89.0078125 451.3203125 C-100.91855183 445.90467463 -112.32717416 439.61814554 -123.75 433.25 C-124.75659668 432.68974121 -125.76319336 432.12948242 -126.80029297 431.55224609 C-136.03214437 426.40955412 -145.25950368 421.25889385 -154.42578125 416 C-169.63613654 407.28857837 -185.10227384 399.14085015 -200.75 391.25 C-201.72243652 390.75838379 -202.69487305 390.26676758 -203.69677734 389.76025391 C-251.77861599 365.62874436 -311.52891088 351.33416508 -364.36328125 368.65234375 C-372.29409789 371.43854788 -379.97046677 374.90021741 -387.64257812 378.32177734 C-389.98995893 379.3556909 -392.35739432 380.32558417 -394.75 381.25 C-393.22368996 375.82311985 -389.49850803 372.27037784 -385.75 368.25 C-384.63625 367.0125 -384.63625 367.0125 -383.5 365.75 C-352.25237083 337.34306439 -307.69993414 328.69371952 -266.609375 330.41796875 C-262.98130973 330.60552692 -259.36812383 330.92487321 -255.75 331.25 C-253.60299737 322.66959695 -251.4600072 314.08820206 -249.32040405 305.50595093 C-240.30682896 269.35644212 -231.20724896 233.22978261 -222.00741577 197.12721252 C-220.57515115 191.50467746 -219.15160768 185.88025891 -217.75 180.25 C-220.46450011 178.89274995 -223.19223579 178.80119522 -226.17431641 178.45141602 C-243.35333016 176.37508792 -259.58275851 171.29156712 -275.75 165.25 C-277.3675563 167.7966413 -278.98483638 170.34345651 -280.6015625 172.890625 C-282.10584086 175.24276935 -283.61942696 177.58598902 -285.1484375 179.921875 C-285.5494165 180.53724121 -285.95039551 181.15260742 -286.36352539 181.78662109 C-287.14822244 182.98979129 -287.9363436 184.19073694 -288.72827148 185.38916016 C-290.81085537 188.59065496 -292.3894118 191.6909579 -293.75 195.25 C-293.17556152 195.55703857 -292.60112305 195.86407715 -292.00927734 196.18041992 C-289.37732529 197.59238292 -286.75118063 199.0148333 -284.125 200.4375 C-283.22136719 200.92025391 -282.31773437 201.40300781 -281.38671875 201.90039062 C-271.2417288 207.41719173 -271.2417288 207.41719173 -267.75 211.25 C-267.2421875 214.640625 -267.2421875 214.640625 -267.625 218.5 C-267.69307861 219.19528809 -267.76115723 219.89057617 -267.83129883 220.60693359 C-270.130264 241.25834135 -277.26871028 262.2334803 -292.8046875 276.7578125 C-305.87070342 286.78033877 -320.35409387 287.82363954 -336.20654297 285.96142578 C-353.70294857 283.21898476 -372.2578224 276.51717583 -384 262.6875 C-384.5775 261.883125 -385.155 261.07875 -385.75 260.25 C-384.93917969 260.10304688 -384.12835938 259.95609375 -383.29296875 259.8046875 C-369.01085343 256.91168626 -357.66508416 250.31526388 -348.71484375 238.58203125 C-346.92806298 235.8606267 -345.31288093 233.10548922 -343.75 230.25 C-343.20472656 229.27933594 -342.65945313 228.30867187 -342.09765625 227.30859375 C-336.88804827 217.53898661 -334.52435959 208.39797472 -334.375 197.375 C-334.36098145 196.66126221 -334.34696289 195.94752441 -334.33251953 195.2121582 C-334.38337178 189.65948424 -335.58797545 185.41202455 -339.5625 181.4375 C-343.09134856 179.52183935 -345.93962872 178.85672365 -349.92578125 179.72265625 C-359.60401615 182.69932345 -366.24509814 188.33530668 -371.0625 197.1875 C-372.94832283 201.18607039 -373.43643878 204.86014292 -373.75 209.25 C-373.02296875 208.16332031 -373.02296875 208.16332031 -372.28125 207.0546875 C-367.15120119 199.65557864 -362.06915809 193.95293863 -353.75 190.25 C-350.6875 189.875 -350.6875 189.875 -347.75 190.25 C-344.98925898 193.11516622 -344.29735501 195.25111447 -344.25 199.1875 C-344.62988723 212.13820094 -352.18897234 225.00482894 -360.75 234.42578125 C-367.3423529 240.43872814 -374.35632087 243.69780914 -383.25 243.50390625 C-387.26624358 243.09600651 -388.91209537 242.15390241 -391.75 239.25 C-399.10067082 228.62369868 -398.26072895 213.84986681 -396.33398438 201.60644531 C-395.20657423 196.02380627 -393.57427296 190.63995279 -391.75 185.25 C-391.53069824 184.57984863 -391.31139648 183.90969727 -391.08544922 183.21923828 C-383.61683042 160.70149246 -372.10684114 139.09868451 -357.75 120.25 C-357.08871094 119.32316406 -356.42742187 118.39632812 -355.74609375 117.44140625 C-344.41329977 101.72576377 -327.0181699 79.71798426 -306.9296875 75.68359375 C-304.5 75.625 -304.5 75.625 -300.75 76.25 C-298.75 78.25 -298.75 78.25 -298.35546875 80.765625 C-298.91209516 85.68157308 -300.9214736 89.57853154 -303.0625 94 C-307.53759347 103.33560168 -311.32022166 112.05776527 -311.0625 122.5625 C-311.06733398 123.57666992 -311.06733398 123.57666992 -311.07226562 124.61132812 C-311.02993032 128.55620849 -310.72874938 131.80132251 -308.75 135.25 C-304.48874676 138.21120988 -299.71521438 138.01387914 -294.75 137.25 C-283.0274055 133.05454513 -274.15802362 124.64977585 -265.12109375 116.40234375 C-263.00496889 114.48144623 -260.85690731 112.61010568 -258.6875 110.75 C-255.74907105 108.19587262 -252.98651761 105.51926227 -250.25 102.75 C-246.89743221 99.35731601 -243.45524318 96.15899316 -239.8359375 93.0546875 C-237.49974499 91.03348724 -235.22035149 88.95621161 -232.9375 86.875 C-223.62613843 78.4862581 -213.75941161 70.78200886 -203.75 63.25 C-202.70585937 62.45851563 -201.66171875 61.66703125 -200.5859375 60.8515625 C-185.4559551 49.59496535 -168.82575074 40.21276341 -151.75 32.25 C-150.72374512 31.76587646 -150.72374512 31.76587646 -149.67675781 31.27197266 C-102.78253841 9.28160435 -51.58158 0.03779848 0 0 Z " fill="#631416" transform="translate(507.75,304.75)"/>
<path d="M0 0 C64.61271121 36.79146177 129.83704548 65.68695165 205.16113281 45.16943359 C233.30593977 37.01314673 259.88085491 23.65237126 285.32128906 9.32177734 C287.35984064 8.18414258 289.39891903 7.04745139 291.43847656 5.91162109 C299.65925425 1.32651488 307.87757827 -3.26138326 316.03222656 -7.96337891 C345.65108478 -25.00532042 376.19099751 -39.85325119 409.32128906 -48.67822266 C410.0109375 -48.86964844 410.70058594 -49.06107422 411.41113281 -49.25830078 C446.96515876 -59.05101234 492.48525173 -61.76023222 525.77441406 -43.74462891 C533.92379889 -39.11196444 539.30748969 -33.73350926 542.32128906 -24.67822266 C543.33721925 -19.24794094 542.571115 -14.5062069 539.81738281 -9.71337891 C529.24576706 4.66733077 512.13995118 9.63140285 495.32128906 12.32177734 C478.20506766 14.77077839 454.92487263 16.17454577 440.32128906 5.32177734 C438.65328386 2.70874134 438.32128906 1.53525809 438.32128906 -1.61572266 C439.65344305 -5.69544424 441.72605695 -7.56765768 445.32128906 -9.67822266 C453.55766291 -13.60642117 461.23175877 -14.29160911 470.25878906 -14.36572266 C472.64296757 -14.40781891 475.02709025 -14.45324477 477.41113281 -14.50244141 C478.45132568 -14.51364014 479.49151855 -14.52483887 480.56323242 -14.53637695 C482.97949838 -14.6606445 485.01349421 -14.98612607 487.32128906 -15.67822266 C479.76415681 -18.71715456 473.17075945 -19.13466984 465.07128906 -19.05322266 C463.93304687 -19.06482422 462.79480469 -19.07642578 461.62207031 -19.08837891 C449.11165299 -19.04577817 435.28541674 -17.13278002 425.75878906 -8.30322266 C423.90469064 -4.91747771 423.32128906 -2.5493581 423.32128906 1.32177734 C427.92416442 9.84932662 436.40821805 12.58205022 445.08300781 15.65380859 C476.44313067 24.84910966 513.68982184 18.00655206 541.96582031 3.05615234 C544.72072378 1.63219758 547.42022062 0.4048429 550.32128906 -0.67822266 C549.99253312 17.04471126 543.68664504 33.31051897 531.47753906 46.29443359 C514.27748504 62.46622352 492.91238439 65.23759415 470.29785156 64.70849609 C455.17000882 64.06445551 437.48341582 60.2591633 426.32128906 49.32177734 C419.86193566 41.93545523 417.20476197 33.05690048 417.32128906 23.32177734 C391.53645418 31.50184457 368.42927162 43.40240931 345.42333984 57.43359375 C342.59481431 59.15528559 339.75670397 60.85892151 336.91113281 62.55224609 C329.46969284 66.98191505 322.07052111 71.46690885 314.734375 76.0690918 C273.41968029 101.92762256 230.00994357 123.37189641 181.32128906 130.32177734 C180.60908203 130.42490234 179.896875 130.52802734 179.16308594 130.63427734 C115.72671822 138.36368681 56.42357214 117.92618355 2.32128906 86.32177734 C0.85267658 85.47127942 -0.61606384 84.62100237 -2.08496094 83.77099609 C-10.07720336 79.12403619 -17.97507349 74.32539977 -25.86621094 69.50927734 C-69.89525921 42.51102064 -69.89525921 42.51102064 -117.67871094 23.32177734 C-117.61683594 24.43552734 -117.55496094 25.54927734 -117.49121094 26.69677734 C-117.5387177 35.65972072 -120.71766392 42.74897609 -126.67871094 49.32177734 C-127.14664063 49.85544922 -127.61457031 50.38912109 -128.09667969 50.93896484 C-140.29504683 63.04325717 -161.15327008 64.59068378 -177.24121094 64.69677734 C-198.12776321 64.57290182 -216.61407805 59.5861981 -232.42871094 45.13427734 C-243.27760354 33.4386419 -250.25328632 16.65909129 -250.80371094 0.69677734 C-250.76246094 -0.08697266 -250.72121094 -0.87072266 -250.67871094 -1.67822266 C-248.30311825 -0.53398853 -246.02868116 0.69829259 -243.74511719 2.02099609 C-233.23089945 8.05591915 -222.32617455 12.02675607 -210.67871094 15.32177734 C-210.00243652 15.51674805 -209.32616211 15.71171875 -208.62939453 15.91259766 C-198.16569924 18.76063962 -187.37914312 18.62472266 -176.61621094 18.69677734 C-175.89954254 18.70490448 -175.18287415 18.71303162 -174.44448853 18.72140503 C-161.37691682 18.83223745 -148.07319921 17.83922084 -135.99121094 12.44677734 C-134.89421875 11.97498047 -133.79722656 11.50318359 -132.66699219 11.01708984 C-128.84442065 8.84846756 -125.67108189 6.30651925 -123.67871094 2.32177734 C-123.05618876 -3.4101642 -123.05618876 -3.4101642 -125.55371094 -8.36572266 C-137.25713475 -17.02625627 -150.00869272 -19.19240181 -164.30371094 -18.99072266 C-165.45355469 -18.99394531 -166.60339844 -18.99716797 -167.78808594 -19.00048828 C-174.6455839 -18.95753129 -181.01933983 -18.33217792 -187.67871094 -16.67822266 C-187.67871094 -16.01822266 -187.67871094 -15.35822266 -187.67871094 -14.67822266 C-186.78116089 -14.69393311 -186.78116089 -14.69393311 -185.86547852 -14.70996094 C-151.03649306 -15.23843301 -151.03649306 -15.23843301 -140.91699219 -7.29541016 C-138.54416909 -4.81207201 -137.70073078 -3.03788008 -137.49121094 0.38427734 C-139.0805766 4.31586608 -141.02412583 6.33442997 -144.67871094 8.32177734 C-167.27821908 16.86829184 -195.39709132 15.73023603 -217.67871094 6.32177734 C-228.31944243 1.2205571 -237.51695004 -3.54798034 -241.99121094 -15.05322266 C-243.53034877 -23.16867669 -241.27969929 -28.85802101 -236.67871094 -35.61572266 C-224.67739224 -49.30080845 -202.80180126 -54.13276704 -185.46582031 -55.51708984 C-117.32923482 -59.4563108 -57.88574833 -33.16580469 0 0 Z " fill="#070707" transform="translate(361.6787109375,738.67822265625)"/>
<path d="M0 0 C4.44861638 0.65495882 8.27896333 2.28292116 12.3125 4.1875 C13.04106201 4.53135742 13.76962402 4.87521484 14.52026367 5.22949219 C25.37290086 10.49096772 35.66196404 16.80743102 46 23 C46.90782227 23.54269531 47.81564453 24.08539062 48.75097656 24.64453125 C52.94499125 27.15315896 57.13432258 29.66941495 61.3203125 32.19140625 C66.50135808 35.30837977 71.71242982 38.37305136 76.93066406 41.42724609 C80.17414601 43.32804546 83.40869174 45.23983874 86.6171875 47.19921875 C136.81937549 77.84962829 190.84297429 100.29180156 250.4375 100.1875 C251.48505463 100.18609512 251.48505463 100.18609512 252.55377197 100.18466187 C297.32838715 100.05540269 340.49898093 89.05278424 380.08789062 68.00683594 C382.11408757 66.93992631 384.15645711 65.90986428 386.203125 64.8828125 C404.15750521 55.77912785 421.17287565 44.94529396 438.19140625 34.22216797 C492.54160058 0 492.54160058 0 503 0 C501.61001923 8.51594884 498.12645646 15.87226012 494.375 23.5625 C493.88395782 24.57721375 493.88395782 24.57721375 493.38299561 25.61242676 C483.64760829 45.61481057 471.32182492 63.90914167 456.25 80.3125 C453.89965841 82.88610375 451.59947641 85.45429906 449.4375 88.1875 C446.86128598 91.16005464 444.1247116 93.63399202 441.12890625 96.171875 C439.77345738 97.33582009 438.44402282 98.5312932 437.15234375 99.765625 C403.13770778 131.95442564 354.06557381 149.0393405 308.875 156.75 C307.12630615 157.04837769 307.12630615 157.04837769 305.34228516 157.3527832 C288.18430998 160.11297921 271.08764138 161.34022722 253.71557617 161.26074219 C250.93451226 161.24998845 248.15409197 161.26074201 245.37304688 161.2734375 C228.19987692 161.28827275 211.4109579 159.69953243 194.5 156.6875 C193.26008301 156.46803711 192.02016602 156.24857422 190.74267578 156.02246094 C126.82794964 144.43776145 68.24876908 113.89515639 30.6015625 59.8515625 C0 15.05124621 0 15.05124621 0 0 Z " fill="#641618" transform="translate(260,786)"/>
<path d="M0 0 C1.98 0 3.96 0 6 0 C8.16729229 4.614651 8.81164608 9.24125355 9.55078125 14.234375 C9.83725127 16.09522557 10.12379376 17.95606499 10.41040039 19.81689453 C10.55752472 20.78645081 10.70464905 21.75600708 10.85623169 22.75494385 C16.3382426 73.7356284 16.3382426 73.7356284 41 117 C49.75830533 122.99185372 59.07326909 125.21059063 69.5625 123.4375 C84.61148555 119.3208391 94.00144721 108.27613385 101.59130859 95.27392578 C103.10810708 92.50828834 104.59381592 89.72897239 106.0625 86.9375 C108.93767035 81.49318926 111.84389708 76.06944046 115.05859375 70.81640625 C115.50388428 70.0797876 115.9491748 69.34316895 116.40795898 68.58422852 C118 67 118 67 120.55883789 66.63647461 C123 67 123 67 125 69 C125.05932617 70.88842773 125.05932617 70.88842773 124.79296875 73.18359375 C124.70128418 74.02341797 124.60959961 74.86324219 124.51513672 75.72851562 C124.4070166 76.62248047 124.29889648 77.51644531 124.1875 78.4375 C123.98556305 80.26951868 123.78373915 82.10154983 123.58203125 83.93359375 C123.3882015 85.62241658 123.1942113 87.31122101 123 89 C121.70336433 100.94856745 121.47707671 112.18295285 124 124 C124.14824219 124.87398438 124.29648437 125.74796875 124.44921875 126.6484375 C125.01762132 129.13973386 125.55166169 130.89206812 127 133 C131.90954572 135.92930145 137.85817357 136.69429949 143.4609375 135.75390625 C154.73237358 132.40715677 162.84658251 126.24622061 171 118 C175.80087421 113.1918407 175.80087421 113.1918407 177.921875 111.1484375 C184.43835266 104.82689721 190.02214658 97.82834781 195.59375 90.67578125 C196.4998499 89.51290386 197.40610211 88.35014514 198.3125 87.1875 C198.76318848 86.6090332 199.21387695 86.03056641 199.67822266 85.43457031 C204.90400669 78.77357446 210.4411974 72.38340683 216 66 C217.65 66.66 219.3 67.32 221 68 C220.27112448 71.82192421 218.62540772 74.97836093 216.875 78.4375 C216.5337207 79.11216309 216.19244141 79.78682617 215.84082031 80.48193359 C214.56689093 82.9912378 213.28395249 85.49580929 212 88 C211.4544043 89.06653809 210.90880859 90.13307617 210.34667969 91.23193359 C203.59399632 104.4153059 196.77637428 117.55485324 189.63427734 130.53271484 C185.66672007 137.74777655 181.78673771 145.00688078 177.92327881 152.27798462 C154.40190852 196.52623576 154.40190852 196.52623576 148 199 C145.06174176 198.16667046 142.34091918 197.21914711 139.5 196.125 C108.18936241 184.93719866 74.01083549 180.32087675 41 178 C40.20271484 177.94215332 39.40542969 177.88430664 38.58398438 177.82470703 C-17.66244594 173.93728968 -79.07303062 176.85457452 -132.49975586 196.36108398 C-136.72540781 197.85990639 -139.74132951 198.63249035 -144 197 C-145.88366914 194.71555019 -147.24609652 192.72976555 -148.6875 190.1875 C-149.31760986 189.12909912 -149.31760986 189.12909912 -149.96044922 188.04931641 C-154.28710497 180.70532461 -158.36224822 173.2105757 -162.42578125 165.71875 C-164.49769225 161.90298687 -166.63266825 158.13044574 -168.8125 154.375 C-181.38359538 132.49769494 -193.14992866 110.04561952 -204.25512695 87.3894043 C-206.83421755 82.18383103 -209.7506548 77.26865486 -212.84765625 72.35546875 C-214 70 -214 70 -213 67 C-210.734375 66.265625 -210.734375 66.265625 -208 66 C-206.078125 67.484375 -206.078125 67.484375 -204.25 69.75 C-203.55648438 70.59046875 -202.86296875 71.4309375 -202.1484375 72.296875 C-201.08496094 73.63492188 -201.08496094 73.63492188 -200 75 C-198.62515793 76.66679695 -197.25015208 78.33345881 -195.875 80 C-194.24883254 81.99906448 -192.62389303 83.99909043 -191 86 C-167.58334883 117.79040816 -167.58334883 117.79040816 -134.52734375 135.46875 C-128.72892094 135.62564081 -124.80054806 135.49513587 -120 132 C-110.38445927 117.75475448 -114.87981056 94.28239494 -117.19604492 78.54467773 C-117.34146729 77.47805908 -117.48688965 76.41144043 -117.63671875 75.3125 C-117.77811279 74.35988281 -117.91950684 73.40726562 -118.06518555 72.42578125 C-118 70 -118 70 -116.69067383 68.1796875 C-114.40158613 66.5824497 -112.7261736 66.7789589 -110 67 C-108.85017962 68.97693913 -107.70438897 70.95597898 -106.5625 72.9375 C-106.20486572 73.55778076 -105.84723145 74.17806152 -105.47875977 74.81713867 C-103.07038262 79.03036418 -100.79307166 83.29455873 -98.57348633 87.60986328 C-94.9427653 94.64970105 -91.22091757 100.99287367 -86 107 C-85.48308594 107.68191406 -84.96617187 108.36382812 -84.43359375 109.06640625 C-78.40940831 116.71639595 -69.6919374 122.22710687 -60.0078125 123.7890625 C-51.04424804 124.73075993 -42.44343369 122.80939126 -34.93359375 117.671875 C-25.98555919 109.93498855 -21.86542348 98.84234097 -18 88 C-17.55914062 86.76378906 -17.11828125 85.52757812 -16.6640625 84.25390625 C-9.34480911 62.18990347 -6.65686379 38.14822621 -3.6484375 15.17236328 C-3.50375031 14.09515518 -3.50375031 14.09515518 -3.35614014 12.9961853 C-3.0954655 11.05125492 -2.84285467 9.10524858 -2.59082031 7.15917969 C-2.06839134 4.36569585 -1.44037081 2.42072791 0 0 Z " fill="#080808" transform="translate(506,109)"/>
<path d="M0 0 C3.18519577 2.90592505 3.40978192 5.85188848 3.61914062 10.0390625 C3.64169922 10.76867187 3.66425781 11.49828125 3.6875 12.25 C3.72166016 12.99507813 3.75582031 13.74015625 3.79101562 14.5078125 C3.87314054 16.33802492 3.93825653 18.16898669 4 20 C5.05687012 20.01458252 6.11374023 20.02916504 7.20263672 20.04418945 C11.21758782 20.1032557 15.2320394 20.18045296 19.24658203 20.26245117 C20.96655013 20.29520182 22.68661292 20.3233789 24.40673828 20.34643555 C52.95404971 20.73898196 81.40221561 26.13346864 103.2109375 46.015625 C112.630835 55.76034655 117.31659007 67.58777068 117.15234375 81.07421875 C116.10841879 101.12293153 106.01010299 117.28308302 92 131 C90.35457561 132.35946098 88.69459026 133.70234079 87 135 C88.33501303 138.00866351 89.76269304 139.91659458 92.1875 142.125 C101.26915062 150.99852946 107.60834837 162.01022895 108.16796875 174.85546875 C108.35257862 191.91420677 105.48790825 203.86440331 93.34375 216.65625 C71.76074708 238.23925292 42.78981735 245.13943689 13.0065918 245.27571106 C11.53368373 245.2741956 10.06077514 245.26920704 8.58789062 245.26074219 C6.36821426 245.24996706 4.14934063 245.26075377 1.9296875 245.2734375 C-27.96017919 245.30395041 -27.96017919 245.30395041 -37.71875 237.65234375 C-40.2133602 235.05379146 -41.00635044 232.96380251 -41.625 229.4375 C-40.83633347 225.09983409 -39.45258608 223.66790743 -36 221 C-23.07084237 216.73526742 -7.44336008 222.11883384 4.5859375 226.81640625 C20.47339333 232.32429997 37.5494835 231.58024639 53 225 C65.82249959 218.59652141 75.15985981 208.5127242 80.1015625 194.984375 C83.72074032 182.06357194 82.63934322 170.00648008 76.46875 158.02734375 C74.52733386 154.72027458 72.7173196 151.7173196 70 149 C64.66817513 149.26659124 59.79986353 150.28999257 54.625 151.5625 C40.85360102 154.57966116 27.21048755 154.87903461 15.0625 147.125 C11.53303323 143.48857969 9.84752353 139.98241642 9.5625 134.9375 C10.06538089 130.41157201 10.6440505 129.02035455 14 126 C26.50194425 117.55751059 42.01448824 119.46566937 55.98828125 122.12890625 C59.17222773 122.78109338 62.19097213 123.63809205 65.25 124.75 C69.09319147 126.03106382 70.28280439 126.2507545 74 125 C82.97443028 116.44386943 86.14376372 103.59694495 86.54101562 91.65405273 C86.65453459 76.30964216 83.22202975 66.74449987 72.6640625 55.515625 C57.87942154 41.55476169 37.01512956 34.57150668 17 34.8125 C15.95199219 34.81314453 14.90398437 34.81378906 13.82421875 34.81445312 C9.06731515 34.39505381 9.06731515 34.39505381 5 36 C0.6901013 67.78176166 2.18580598 100.81135066 1.7856617 132.80682564 C1.75389554 135.34069789 1.72176753 137.87456533 1.68955994 140.40843201 C1.6680952 142.10342374 1.64665662 143.79841581 1.62524414 145.4934082 C1.61463298 146.33333659 1.60402182 147.17326498 1.5930891 148.03864574 C1.53053239 153.03928756 1.47279013 158.03995732 1.41892147 163.04069996 C1.3841557 166.20635748 1.34615575 169.37197148 1.30755424 172.5375843 C1.29040672 174.00530445 1.27465895 175.47304182 1.26051521 176.94079399 C1.18704407 184.51287129 1.01323203 192.07620092 0.60742188 199.63818359 C0.54035034 200.90729584 0.47327881 202.17640808 0.4041748 203.48397827 C0.01019516 206.91130966 -0.7814136 209.78279119 -2 213 C-17.70760619 213.79420481 -17.70760619 213.79420481 -24 209 C-28.83642901 204.33034441 -30.17863583 197.57573056 -30.36328125 191.10546875 C-30.3105065 178.90021005 -29.98316475 166.78663408 -29.15719223 154.60923195 C-27.67616275 132.25320544 -27.56148034 109.8822864 -27.39910889 87.48547363 C-27.35824062 82.10679621 -27.30753887 76.7282109 -27.2578125 71.34960938 C-27.16257694 60.89980547 -27.07771565 50.44994793 -27 40 C-34.04803629 41.30940783 -40.12453983 44.91688847 -44.69921875 50.52734375 C-46.85967705 54.63416088 -47.58567507 59.06544133 -48.54321289 63.57788086 C-51.51635259 77.4127297 -51.51635259 77.4127297 -57.00390625 81.48828125 C-62.01411682 84.02388347 -67.44388621 85.13571865 -73 84 C-75.50160818 82.12379387 -76.61945652 80.76108697 -78 78 C-79.01919091 67.16745656 -77.63532292 59.92193346 -70.9453125 51.375 C-58.78974844 37.2425795 -42.53868256 31.10173474 -25 26 C-24.34 26 -23.68 26 -23 26 C-22.86464844 25.23816406 -22.72929687 24.47632813 -22.58984375 23.69140625 C-20.53861804 13.85289253 -16.41129913 6.76774797 -8 1 C-5.17116253 -0.41441874 -3.12623255 -0.31900332 0 0 Z " fill="#FBF9F9" transform="translate(394,416)"/>
<path d="M0 0 C1.27488281 0.34160156 2.54976562 0.68320312 3.86328125 1.03515625 C15.40915538 4.29570894 25.70855054 8.11095286 32 19 C34.96659189 25.33771903 34.75407259 32.02673384 32.9375 38.6875 C31.20286653 43.404051 28.28297869 46.42100208 24 49 C21.1098386 49.96338713 18.41182106 50.16210852 15.375 50.1875 C14.59898437 50.20167969 13.82296875 50.21585937 13.0234375 50.23046875 C11 50 11 50 9 48 C8.83642578 46.13989258 8.83642578 46.13989258 8.9453125 43.89453125 C8.98205078 42.66573242 8.98205078 42.66573242 9.01953125 41.41210938 C9.08906636 39.69819764 9.16699938 37.9846031 9.25390625 36.27148438 C9.41380274 30.2471491 8.51511294 26.93516763 5 22 C-4.13931962 14.16629747 -16.30992645 14.00259083 -27.76318359 14.74121094 C-38.35008205 15.96606494 -47.34571089 22.47797981 -53.875 30.5625 C-59.14955451 37.44395368 -59.69747223 43.50855243 -59 52 C-56.79578704 62.79879122 -48.53529166 69.82154138 -40 76 C-36.58909994 78.08750612 -33.07721165 79.90316066 -29.5 81.6875 C-28.03252319 82.43942627 -28.03252319 82.43942627 -26.53540039 83.20654297 C-21.12421916 85.96742815 -15.677445 88.65113318 -10.21484375 91.30859375 C1.59741508 97.07317271 12.78498781 102.65891418 23 111 C23.90363281 111.70125 24.80726563 112.4025 25.73828125 113.125 C30.69550754 117.21715645 34.43795794 121.65576586 37.9375 127 C38.30335205 127.55719727 38.6692041 128.11439453 39.04614258 128.68847656 C44.22773733 137.06144885 45.53484343 144.98861763 45.4375 154.75 C45.42614014 156.34171021 45.42614014 156.34171021 45.41455078 157.96557617 C45.24640227 165.97595043 44.35799079 172.64390143 41 180 C40.5875 180.93457031 40.175 181.86914062 39.75 182.83203125 C31.00211723 200.60116812 13.90475551 212.48825331 -4.28515625 219.21484375 C-12.052191 221.71577232 -19.99218696 223.46116689 -28 225 C-29.37671875 225.28037109 -29.37671875 225.28037109 -30.78125 225.56640625 C-54.92074034 228.81820653 -83.82518634 225.385771 -104 211 C-111.35125285 204.99144173 -117.23478094 197.54589339 -119 188 C-120.04835208 176.21599179 -118.83993833 167.50071333 -111.32421875 157.84765625 C-105.59699825 151.62012683 -98.82297166 148.54562407 -90.45703125 147.76171875 C-82.99860025 147.55239794 -76.19488533 148.55150192 -70.265625 153.42578125 C-68.1605223 155.71419345 -67.06875455 157.63044431 -66.5 160.6875 C-67.11860514 163.54854878 -67.67246466 164.23527033 -70 166 C-73.56272423 166.88639894 -77.12888372 167.45884637 -80.75 168.05859375 C-84.01590838 168.733235 -84.01590838 168.733235 -85.9140625 170.828125 C-88.30696929 175.61393859 -87.46352842 180.55791158 -85.875 185.5 C-79.66284092 197.09603029 -72.4009504 204.12125619 -60 209 C-39.59989096 213.62053752 -20.19230394 208.06344286 -2.71484375 197.63671875 C3.37165419 193.15849817 6.67068038 185.59865151 10 179 C10.38671875 178.236875 10.7734375 177.47375 11.171875 176.6875 C14.52489864 168.5896316 14.48598577 157.91951349 11.96875 149.5859375 C2.35937798 128.92578765 -18.92285219 118.74124899 -38.5 109.5 C-58.21517133 100.19359802 -80.85803856 89.35086652 -91 69 C-91.33902344 68.401875 -91.67804687 67.80375 -92.02734375 67.1875 C-96.03766247 58.90813232 -95.25983092 46.55792938 -92.375 38 C-85.55580531 22.20818072 -72.43915016 11.32003319 -56.8125 4.6875 C-38.90370471 -2.13301955 -18.76201172 -5.10728951 0 0 Z " fill="#FBFAFA" transform="translate(647,434)"/>
<path d="M0 0 C14.83189858 -0.94671693 24.79676512 3.98617215 37 12 C38.60150732 13.00425346 40.20521757 14.00501564 41.8125 15 C42.864375 15.66 43.91625 16.32 45 17 C43.54844106 20.33578513 41.72074062 22.52498603 39.1484375 25.08203125 C38.37886719 25.84966797 37.60929687 26.61730469 36.81640625 27.40820312 C35.60791016 28.59833008 35.60791016 28.59833008 34.375 29.8125 C33.59253906 30.59431641 32.81007812 31.37613281 32.00390625 32.18164062 C24.88069271 39.25169586 17.53162505 45.81261673 9.4375 51.75 C8.81681641 52.21792969 8.19613281 52.68585938 7.55664062 53.16796875 C-2.20963401 60.35773923 -2.20963401 60.35773923 -7.4375 59.6875 C-7.953125 59.460625 -8.46875 59.23375 -9 59 C-8.08047323 54.24911168 -7.06153251 49.93725165 -5.125 45.5 C0.96833924 30.70189042 2.49758918 15.7977592 0 0 Z " fill="#6B1F20" transform="translate(217,371)"/>
<path d="M0 0 C-0.15936035 0.57854736 -0.3187207 1.15709473 -0.48291016 1.75317383 C-4.53378489 19.3547792 2.22322999 36.33002675 8.85180664 52.28930664 C9.62215458 54.17155795 10.31824266 56.08388078 11 58 C10.505 58.99 10.505 58.99 10 60 C-2.88530979 58.42723425 -12.76795294 48.37718049 -22 40 C-22.57991699 39.47647949 -23.15983398 38.95295898 -23.75732422 38.41357422 C-29.83866824 32.90945409 -35.80837069 27.3245331 -41.51171875 21.42578125 C-42.96187342 19.89580802 -42.96187342 19.89580802 -45 19 C-45 18.34 -45 17.68 -45 17 C-44.071875 16.484375 -43.14375 15.96875 -42.1875 15.4375 C-38.90280769 13.56908191 -35.73408148 11.55401864 -32.5625 9.5 C-21.72579506 2.59585101 -12.97391164 -0.48753739 0 0 Z " fill="#6C2022" transform="translate(803,371)"/>
<path d="M0 0 C3.5172409 3.5172409 4.96022102 6.65336691 5.6875 11.5625 C5.02512364 16.36472863 3.44357106 19.59567101 0.1875 23.1875 C-6.24865654 27.62271283 -13.1173095 28.89626755 -20.8125 28.1875 C-27.12909031 26.65347092 -32.03962544 23.93851225 -35.625 18.375 C-37.57240191 13.14776329 -37.44579818 9.71797061 -35.3125 4.5625 C-32.46148378 0.04160286 -27.91244782 -2.83291649 -22.859375 -4.4296875 C-14.37946551 -6.01562477 -7.19415392 -4.63623252 0 0 Z " fill="#10100F" transform="translate(524.8125,76.8125)"/>
<path d="M0 0 C3.11268183 2.23018522 4.7695648 4.3086944 6 8 C6.51002021 14.12024252 5.95539169 18.17245673 2 23 C-3.86566326 27.93248956 -9.96931931 29.29213428 -17.4375 28.9375 C-23.77409379 28.19720253 -29.55791852 25.93943904 -33.70703125 20.9453125 C-36.3965158 16.89889768 -36.41187447 12.77774389 -36 8 C-32.93726139 1.99232041 -28.87562992 -0.93495188 -22.625 -3.25 C-14.14479758 -5.00452464 -7.76986358 -3.76941738 0 0 Z " fill="#100F0F" transform="translate(406,143)"/>
<path d="M0 0 C3.54966679 2.27057577 6.81180784 4.84132743 8 9 C8.45334816 14.62151717 8.18933562 18.16100802 5 23 C-1.06504237 28.74582961 -7.8429872 30.07643787 -16 30 C-22.35235798 29.00267081 -26.98663898 27.22953103 -31 22 C-33.99275361 17.61062804 -34.46058864 14.29643106 -33.6171875 9.17578125 C-32.58828917 5.54858903 -31.00481812 3.17271464 -28 1 C-18.45099629 -3.79691736 -9.79067305 -4.56053532 0 0 Z " fill="#111111" transform="translate(640,142)"/>
<path d="M0 0 C3.18901072 2.23528789 6.23720387 4.47440774 8 8 C8.54035594 12.9252115 8.54435469 16.86941718 6.375 21.375 C1.40159635 26.87191982 -3.734624 29.24075653 -11 30 C-19.41615195 30.1158186 -24.6865263 28.09737759 -30.875 22.3125 C-33.52049063 18.18864696 -34.44772712 14.88988252 -34 10 C-31.17372921 4.2387557 -27.04564029 0.71477527 -21.1875 -1.75 C-13.8138466 -4.26311782 -6.92872281 -3.35900515 0 0 Z " fill="#111111" transform="translate(743,142)"/>
<path d="M0 0 C3.83513976 3.30412041 5.8848127 6.6407898 6.3125 11.6875 C6.22302247 16.17764494 4.93076606 19.58769164 2 23 C-3.57491541 28.07645239 -9.61216744 29.18361572 -17 29 C-22.87486737 28.41456741 -27.83424017 26.16575983 -32 22 C-34.73231172 18.26270007 -35.93938953 15.13139553 -36.1875 10.5 C-34.29688263 4.92765407 -31.06951853 0.64732658 -25.81640625 -2.171875 C-16.68325816 -5.52755506 -8.57118611 -4.39960727 0 0 Z " fill="#101010" transform="translate(303,143)"/>
<path d="M0 0 C2.8828125 1.51171875 2.8828125 1.51171875 5 3 C5 3.66 5 4.32 5 5 C-3.47620871 7.73813177 -13.1960322 8.70281332 -21.75 5.6875 C-24.52364183 4.24733982 -26.04052825 3.32167713 -28 1 C-27.875 -1.125 -27.875 -1.125 -27 -3 C-17.91568315 -6.02810562 -8.61785739 -3.41742621 0 0 Z " fill="#6C2022" transform="translate(448,550)"/>
<path d="M0 0 C0 4.24164786 -2.42939027 6.06840198 -5.1875 9 C-5.91163086 9.80050781 -5.91163086 9.80050781 -6.65039062 10.6171875 C-10.59537238 14.87459062 -14.77589427 17.48468983 -20 20 C-16.27755957 15.44001047 -12.45079695 11.52067741 -7.96875 7.7109375 C-5.16594984 5.27517069 -2.59235026 2.65715902 0 0 Z " fill="#885355" transform="translate(259,406)"/>
<path d="M0 0 C1.32 0.33 2.64 0.66 4 1 C2.4027394 2.81901911 0.7978129 4.63009734 -0.8125 6.4375 C-1.26431641 6.95376953 -1.71613281 7.47003906 -2.18164062 8.00195312 C-4.43034335 10.51327806 -5.74549181 11.91516394 -9 13 C-7.47987323 7.59510481 -3.72614782 4.01507372 0 0 Z " fill="#7E4547" transform="translate(144,501)"/>
<path d="M0 0 C1.32 1.65 2.64 3.3 4 5 C-2.75 9 -2.75 9 -5 9 C-3.7508258 5.54074837 -2.32472205 2.85306797 0 0 Z " fill="#915E60" transform="translate(118,677)"/>
<path d="M0 0 C0.66 0.33 1.32 0.66 2 1 C1.360625 1.7425 0.72125 2.485 0.0625 3.25 C-1.78333407 5.7111121 -2.56069174 7.03466926 -3 10 C-5.5 8.625 -5.5 8.625 -8 7 C-8 6.34 -8 5.68 -8 5 C-6.20963542 3.99088542 -4.41927083 2.98177083 -2.62890625 1.97265625 C-1.02121854 1.1027487 -1.02121854 1.1027487 0 0 Z " fill="#854F4F" transform="translate(766,383)"/>
<path d="M0 0 C0.66 0.33 1.32 0.66 2 1 C-0.21689838 5.43379675 -2.77728219 7.46636932 -7 10 C-7.66 9.67 -8.32 9.34 -9 9 C-6.03 6.03 -3.06 3.06 0 0 Z " fill="#956262" transform="translate(175,396)"/>
<path d="M0 0 C0 0.99 0 1.98 0 3 C-2.31 3 -4.62 3 -7 3 C-7.33 3.66 -7.66 4.32 -8 5 C-10.0625 6.125 -10.0625 6.125 -12 7 C-12.66 6.34 -13.32 5.68 -14 5 C-12.23244474 4.15973604 -10.46082737 3.32801278 -8.6875 2.5 C-7.70136719 2.0359375 -6.71523438 1.571875 -5.69921875 1.09375 C-3 0 -3 0 0 0 Z " fill="#956867" transform="translate(763,786)"/>
<path d="M0 0 C0.66 0.33 1.32 0.66 2 1 C-1.63 4.63 -5.26 8.26 -9 12 C-9 7.8407692 -6.75316432 5.85455565 -4 3 C-1.6875 1.125 -1.6875 1.125 0 0 Z " fill="#59595A" transform="translate(132,697)"/>
<path d="M0 0 C0.928125 0.0825 1.85625 0.165 2.8125 0.25 C0.17649506 2.32114674 -2.13798605 3.72524303 -5.1875 5.25 C-5.1875 8.22 -5.1875 11.19 -5.1875 14.25 C-5.5175 14.25 -5.8475 14.25 -6.1875 14.25 C-6.26903933 12.66753293 -6.32693557 11.08383727 -6.375 9.5 C-6.40980469 8.61828125 -6.44460938 7.7365625 -6.48046875 6.828125 C-5.97088361 2.3437758 -4.53251946 0.35549172 0 0 Z " fill="#A67D7D" transform="translate(865.1875,494.75)"/>
<path d="M0 0 C-2.64 2.64 -5.28 5.28 -8 8 C-8.99 7.67 -9.98 7.34 -11 7 C-3.96875 -1.984375 -3.96875 -1.984375 0 0 Z " fill="#783638" transform="translate(171,405)"/>
<path d="M0 0 C0.66 0 1.32 0 2 0 C1.03519209 2.15226381 0.27130555 3.75695544 -1.5 5.34375 C-3.37054431 7.40914267 -3.67539767 8.96941841 -4.1875 11.6875 C-4.34605469 12.49574219 -4.50460937 13.30398437 -4.66796875 14.13671875 C-4.77753906 14.75160156 -4.88710938 15.36648437 -5 16 C-5.33 16 -5.66 16 -6 16 C-6.50126942 9.85944957 -5.31436435 6.97154653 -2 2 C-1.34 1.34 -0.68 0.68 0 0 Z " fill="#6E6F6E" transform="translate(494,76)"/>
<path d="M0 0 C0.66 0.33 1.32 0.66 2 1 C0.71937515 2.7074998 -0.61767557 4.37373596 -2 6 C-2.66 6 -3.32 6 -4 6 C-4.33 6.99 -4.66 7.98 -5 9 C-7.0625 9.6875 -7.0625 9.6875 -9 10 C-3.9977221 2.51708428 -3.9977221 2.51708428 0 0 Z " fill="#824B4C" transform="translate(128,667)"/>
<path d="M0 0 C2.97 0.495 2.97 0.495 6 1 C6.33 1.99 6.66 2.98 7 4 C6.236875 3.773125 5.47375 3.54625 4.6875 3.3125 C3.800625 3.209375 2.91375 3.10625 2 3 C0.1645201 4.33378575 0.1645201 4.33378575 -1 6 C-0.67 4.02 -0.34 2.04 0 0 Z " fill="#8E5C5C" transform="translate(230,467)"/>
<path d="M0 0 C4.75 0.75 4.75 0.75 7 3 C6.01 3.33 5.02 3.66 4 4 C3.01 5.485 3.01 5.485 2 7 C1.34 4.69 0.68 2.38 0 0 Z " fill="#A37372" transform="translate(260,786)"/>
<path d="M0 0 C1.98 0.99 1.98 0.99 4 2 C3.34 4.97 2.68 7.94 2 11 C1.67 11 1.34 11 1 11 C0.67 7.37 0.34 3.74 0 0 Z " fill="#7D7D7C" transform="translate(111,737)"/>
<path d="M0 0 C3.96 0 7.92 0 12 0 C12 0.33 12 0.66 12 1 C9.03 1 6.06 1 3 1 C2.67 2.98 2.34 4.96 2 7 C1.67 7 1.34 7 1 7 C0.67 4.69 0.34 2.38 0 0 Z " fill="#B28F8E" transform="translate(217,371)"/>
<path d="M0 0 C0.99 0.33 1.98 0.66 3 1 C1.35 2.98 -0.3 4.96 -2 7 C-2.66 6.67 -3.32 6.34 -4 6 C-2.84826645 3.53199953 -1.95216435 1.95216435 0 0 Z " fill="#692629" transform="translate(484,547)"/>
<path d="M0 0 C0.66 0.33 1.32 0.66 2 1 C1.0479279 2.00596297 0.08812654 3.00461563 -0.875 4 C-1.40867187 4.556875 -1.94234375 5.11375 -2.4921875 5.6875 C-4 7 -4 7 -6 7 C-4.60667426 3.63279613 -3.0210714 2.0140476 0 0 Z " fill="#4E4E4F" transform="translate(378,142)"/>
<path d="M0 0 C0.66 0.66 1.32 1.32 2 2 C-0.97 4.475 -0.97 4.475 -4 7 C-4 4 -4 4 -2 1.8125 C-1.34 1.214375 -0.68 0.61625 0 0 Z " fill="#681E20" transform="translate(599,457)"/>
</svg>
